HIERARCHY
ROOT Hips
{
 OFFSET 0.000000 0.000000 0.000000
 CHANNELS 6 Xposition Yposition Zposition Yrotation Xrotation Zrotation
 JOINT Chest
 {
  OFFSET 0.000000 9.585900 0.002600
  CHANNELS 3 Yrotation Xrotation Zrotation
  JOINT Chest2
  {
   OFFSET 0.000000 9.601200 -0.005300
   CHANNELS 3 Yrotation Xrotation Zrotation
   JOINT Chest3
   {
    OFFSET 0.000000 9.561800 0.000000
    CHANNELS 3 Yrotation Xrotation Zrotation
    JOINT Chest4
    {
     OFFSET 0.000000 9.552100 0.000000
     CHANNELS 3 Yrotation Xrotation Zrotation
     JOINT Neck
     {
      OFFSET 0.000000 14.453000 0.000000
      CHANNELS 3 Yrotation Xrotation Zrotation
      JOINT Head
      {
       OFFSET 0.000000 8.936500 -0.011300
       CHANNELS 3 Yrotation Xrotation Zrotation
       End Site
       {
        OFFSET 0.000000 17.073600 -0.006000
       }
      }
     }
     JOINT RightCollar
     {
      OFFSET -2.921100 9.558500 0.000000
      CHANNELS 3 Yrotation Xrotation Zrotation
      JOINT RightShoulder
      {
       OFFSET -13.519700 0.000000 0.000000
       CHANNELS 3 Yrotation Xrotation Zrotation
       JOINT RightElbow
       {
        OFFSET 0.000000 -29.696600 0.000000
        CHANNELS 3 Yrotation Xrotation Zrotation
        JOINT RightWrist
        {
         OFFSET 0.000000 -24.004700 0.000000
         CHANNELS 3 Yrotation Xrotation Zrotation
         End Site
         {
          OFFSET 0.000000 -17.728500 0.000000
         }
        }
       }
      }
     }
     JOINT LeftCollar
     {
      OFFSET 2.921100 9.558500 0.000000
      CHANNELS 3 Yrotation Xrotation Zrotation
      JOINT LeftShoulder
      {
       OFFSET 13.519700 0.000000 0.000000
       CHANNELS 3 Yrotation Xrotation Zrotation
       JOINT LeftElbow
       {
        OFFSET 0.000000 -29.696600 0.000000
        CHANNELS 3 Yrotation Xrotation Zrotation
        JOINT LeftWrist
        {
         OFFSET 0.000000 -24.004700 0.000000
         CHANNELS 3 Yrotation Xrotation Zrotation
         End Site
         {
          OFFSET 0.000000 -17.728500 0.000000
         }
        }
       }
      }
     }
    }
   }
  }
 }
 JOINT RightHip
 {
  OFFSET -7.771700 -0.012900 -0.001300
  CHANNELS 3 Yrotation Xrotation Zrotation
  JOINT RightKnee
  {
   OFFSET 0.000000 -40.869800 0.001200
   CHANNELS 3 Yrotation Xrotation Zrotation
   JOINT RightAnkle
   {
    OFFSET 0.000000 -39.717900 0.002100
    CHANNELS 3 Yrotation Xrotation Zrotation
    JOINT RightToe
    {
     OFFSET 0.000000 -4.965400 11.033500
     CHANNELS 3 Yrotation Xrotation Zrotation
     End Site
     {
      OFFSET 0.000000 -1.423100 5.872300
     }
    }
   }
  }
 }
 JOINT LeftHip
 {
  OFFSET 7.771700 -0.012900 -0.001300
  CHANNELS 3 Yrotation Xrotation Zrotation
  JOINT LeftKnee
  {
   OFFSET 0.000000 -40.869800 0.001200
   CHANNELS 3 Yrotation Xrotation Zrotation
   JOINT LeftAnkle
   {
    OFFSET 0.000000 -39.717900 0.002100
    CHANNELS 3 Yrotation Xrotation Zrotation
    JOINT LeftToe
    {
     OFFSET 0.000000 -4.965400 11.033500
     CHANNELS 3 Yrotation Xrotation Zrotation
     End Site
     {
      OFFSET 0.000000 -1.423100 5.872300
     }
    }
   }
  }
 }
}
MOTION
Frames: 8
Frame Time: 0.008333
0.000000 85.388000 0.000000 0.000000 -5.767877 0.000000 0.000000 11.653817 0.000000 0.000000 -5.885947 0.000000 0.000000 -0.000000 0.000000 0.000000 -0.000000 0.000000 0.000000 12.528835 0.000000 0.000000 0.711642 0.000000 0.000000 -0.000000 0.000000 0.000000 0.000000 -90.000000 0.000000 -2.309062 0.000000 0.000000 2.309062 0.000000 0.000000 -0.000000 0.000000 0.000000 -0.000000 90.000000 0.000000 -2.309062 0.000000 0.000000 2.309062 0.000000 0.000000 8.520406 0.000000 0.000000 1.905762 0.000000 -0.000000 -4.658285 0.000000 0.000000 -0.000000 0.000000 0.000000 8.520406 0.000000 0.000000 1.905762 0.000000 -0.000000 -4.658285 0.000000 0.000000 -0.000000 0.000000
-7.567248 55.657248 26.281971 178.795951 -22.270343 -10.698396 -0.285429 9.254022 6.291316 -0.258885 5.439447 2.338497 -0.291350 6.799381 2.923031 -0.268706 5.415441 2.337400 5.426270 24.437440 1.249466 5.613973 0.821993 0.135591 -0.725784 1.332305 -3.559100 -6.760193 -5.376557 0.180775 149.171459 -52.402300 -122.384211 16.144642 -18.803916 -48.884327 -8.868915 -0.306015 -3.930875 2.270163 -0.423513 3.626789 -120.440154 -38.673210 133.504424 18.283358 -45.319997 17.737838 -23.293232 -41.311326 11.688731 39.572430 85.810467 35.639302 1.884931 -19.969148 -1.137298 -0.699084 2.045194 -0.323284 -19.682975 -54.646055 20.787204 173.065547 79.564915 168.330982 -2.007831 -17.159147 1.930583 -0.690474 -1.747991 -0.303225
-7.568418 55.660938 26.286001 178.794685 -22.290244 -10.709939 -0.280443 9.260238 6.294984 -0.256224 5.451831 2.344215 -0.290662 6.804547 2.925293 -0.245298 5.451632 2.338977 5.363930 24.355294 1.255010 5.566366 0.753637 0.142290 -0.722963 1.318914 -3.555468 -6.832768 -5.497150 0.350376 147.929595 -53.273088 -121.208681 16.214964 -18.685717 -48.492432 -8.919078 -0.337444 -3.924473 2.465055 -0.454050 3.423265 -119.539526 -38.951388 132.627874 18.226768 -45.203012 17.347078 -23.287562 -41.285851 11.695901 39.460671 85.801109 35.523827 1.868714 -19.959523 -1.126542 -0.711011 2.036968 -0.324664 -19.675689 -54.626476 20.792774 173.041284 79.570233 168.310217 -2.018336 -17.145558 1.931181 -0.685743 -1.755940 -0.303260
-7.571835 55.663058 26.291492 178.798603 -22.297693 -10.712114 -0.283173 9.260965 6.291196 -0.254022 5.456138 2.345861 -0.283043 6.812099 2.926060 -0.238788 5.451768 2.346259 5.306893 24.281747 1.247117 5.503315 0.660270 0.146121 -0.724966 1.323327 -3.556414 -6.899834 -5.598570 0.540391 146.673213 -54.302487 -119.992603 16.299377 -18.564579 -48.033891 -8.947183 -0.341045 -3.925289 2.619925 -0.489965 3.188167 -118.523611 -39.290325 131.631642 18.123394 -45.045735 16.945338 -23.283476 -41.279095 11.695172 39.382849 85.796344 35.440378 1.855592 -19.951721 -1.115579 -0.716183 2.032525 -0.324291 -19.672307 -54.620744 20.792316 173.046178 79.578551 168.311390 -2.025135 -17.131256 1.931415 -0.683530 -1.758618 -0.298010
-7.575494 55.664599 26.295081 178.812360 -22.309836 -10.717416 -0.293939 9.267776 6.286552 -0.239183 5.442303 2.344650 -0.287931 6.831537 2.933433 -0.230651 5.449723 2.354738 5.239406 24.193412 1.231376 5.430224 0.548419 0.143614 -0.730392 1.331037 -3.560134 -6.968938 -5.698872 0.738827 145.424811 -55.522901 -118.769515 16.361949 -18.451853 -47.517039 -8.978824 -0.339955 -3.929075 2.727224 -0.535301 2.916708 -117.382669 -39.696108 130.524171 18.005517 -44.818538 16.487465 -23.276973 -41.268347 11.690610 39.275619 85.799164 35.331915 1.827856 -19.942773 -1.102371 -0.702036 2.024173 -0.319438 -19.679325 -54.602551 20.789895 173.163558 79.595955 168.421490 -2.016853 -17.135902 1.927308 -0.671186 -1.742529 -0.291300
-7.576016 55.666589 26.294604 178.830789 -22.339257 -10.743441 -0.289684 9.271241 6.296365 -0.241885 5.455229 2.354843 -0.284956 6.838212 2.941227 -0.229104 5.447197 2.360288 5.164443 24.093456 1.209634 5.350198 0.422190 0.136160 -0.686837 1.322600 -3.533485 -7.079286 -5.789909 0.898432 144.160642 -56.929341 -117.544910 16.353357 -18.343376 -46.938100 -9.016090 -0.331789 -3.925303 2.781030 -0.588957 2.606111 -116.121962 -40.176590 129.323789 17.914282 -44.493789 15.943359 -23.277793 -41.230935 11.696587 39.163307 85.802772 35.224392 1.802155 -19.930024 -1.093165 -0.685646 2.009766 -0.314971 -19.717368 -54.564165 20.820029 173.219089 79.596513 168.466121 -2.015746 -17.133895 1.923778 -0.666627 -1.742302 -0.287095
-7.577843 55.666117 26.293982 178.855448 -22.354058 -10.763717 -0.295214 9.267385 6.302111 -0.246782 5.464926 2.362168 -0.278884 6.836737 2.945536 -0.234649 5.444894 2.370561 5.084477 23.985250 1.181566 5.266039 0.286002 0.122924 -0.637734 1.310762 -3.500093 -7.173705 -5.893914 1.037224 142.768169 -58.446961 -116.256156 16.216672 -18.194334 -46.277890 -9.037513 -0.319568 -3.927746 2.793439 -0.645904 2.297395 -114.816734 -40.773572 128.062450 17.884566 -44.059283 15.299233 -23.288816 -41.210875 11.700645 39.130688 85.809750 35.189778 1.791085 -19.924400 -1.083903 -0.687689 1.998185 -0.311800 -19.797211 -54.540429 20.873431 173.278961 79.591032 168.493882 -2.015007 -17.118336 1.922261 -0.663083 -1.753688 -0.284629
-7.578870 55.664837 26.290060 178.876400 -22.376248 -10.786807 -0.298657 9.274349 6.316427 -0.254449 5.478485 2.364873 -0.270587 6.826916 2.953611 -0.244153 5.443561 2.374309 5.002492 23.866035 1.150751 5.178539 0.145498 0.102753 -0.615260 1.314689 -3.489053 -7.204740 -6.036558 1.198774 141.049704 -59.943672 -114.761075 15.913465 -17.945496 -45.513832 -9.063722 -0.305332 -3.908019 2.831031 -0.711095 1.995945 -113.571157 -41.556242 126.769952 17.908920 -43.516130 14.567007 -23.282174 -41.184272 11.692841 39.090055 85.818384 35.156145 1.811566 -19.922815 -1.084014 -0.677619 1.988252 -0.306435 -19.838923 -54.509837 20.897600 173.346845 79.586088 168.553372 -2.010611 -17.129783 1.915863 -0.658512 -1.740869 -0.284993
